<svg xmlns="http://www.w3.org/2000/svg" width="167" height="52">
    <path d="M19 1 L23 1 C25 1 26 2 26 4 L26 8 C26 10 25 11 23 11 L19 11 C17 11 16 10 16 8 L16 4 C16 2 17 1 19 1" fill="blue" stroke="white" stroke-width="0.5" />
    <path d="M29 1 L33 1 C35 1 36 2 36 4 L36 8 C36 10 35 11 33 11 L29 11 C27 11 26 10 26 8 L26 4 C26 2 27 1 29 1" fill="blue" stroke="white" stroke-width="0.5" />
    <path d="M39 1 L43 1 C45 1 46 2 46 4 L46 8 C46 10 45 11 43 11 L39 11 C37 11 36 10 36 8 L36 4 C36 2 37 1 39 1" fill="blue" stroke="white" stroke-width="0.5" />
    <path d="M19 41 L23 41 C25 41 26 42 26 44 L26 48 C26 50 25 51 23 51 L19 51 C17 51 16 50 16 48 L16 44 C16 42 17 41 19 41" fill="blue" stroke="white" stroke-width="0.5" />
    <path d="M19 11 L23 11 C25 11 26 12 26 14 L26 18 C26 20 27 21 29 21 L33 21 C35 21 36 22 36 24 L36 28 C36 30 35 31 33 31 L29 31 C27 31 26 32 26 34 L26 38 C26 40 25 41 23 41 L19 41 C17 41 16 40 16 38 L16 34 C16 32 15 31 13 31 L9 31 C7 31 6 30 6 28 L6 24 C6 22 7 21 9 21 L13 21 C15 21 16 20 16 18 L16 14 C16 12 17 11 19 11 Z" fill="lime" stroke="white" stroke-width="0.5" />
    <rect x="9" y="24" width="4" height="4" stroke="blue" fill="none" stroke-width="0.5" />
    <polygon points="21 14 19 18 23 18" stroke="red" stroke-width="0.5" fill="none" />
    <circle cx="31" cy="26" r="2" stroke="green" stroke-width="0.5" fill="none" />
    <path d="M19 34 L23 38 M23 34 L19 38" fill="none" stroke="white" stroke-width="0.8" />
    <path d="M37 21 L37 41 C37 48 40 51 47 51 L50 51 C57 51 60 48 60 41 L60 21 L50 21 L50 41 C50 44 47 44 47 41 L47 21 Z" fill="blue" stroke="white" stroke-width="0.5" />
    <path d="M61 21 L81 51 L91 51 L91 21 L81 21 L81 36 L91 51 L71 21 L61 21 L61 51 L71 51 L71 36" fill="blue" stroke="white" stroke-width="0.5" />
    <path d="M92 51 L92 18 C92 10 102 10 102 18 L102 27 L128 1 L138 1 L102 37 L116 51 L106 51 L102 47 L102 51 Z" fill="lime" stroke="white" stroke-width=".5" />
    <circle cx="97" cy="6" r="5" stroke="white" stroke-width="0.5" fill="none" />
    <circle cx="95" cy="5" r="1" stroke="white" fill="indigo" stroke-width="0.5" />
    <circle cx="99" cy="5" r="1" stroke="white" fill="indigo" stroke-width="0.5" />
    <path d="M95 8 C96 9 98 9 99 8" fill="none" stroke="white" stroke-width="0.5" />
    <path d="M136 51 L126 51 L126 37 L115 26 L120 21 L131 31 L150 12 L161 12 L136 37 Z" fill="lime" stroke="white" stroke-width="0.5" />
    <circle cx="156" cy="6" r="5" stroke="white" stroke-width="0.5" fill="none" />
    <circle cx="154" cy="5" r="1" stroke="white" fill="none" stroke-width="0.5" />
    <circle cx="158" cy="5" r="1" stroke="white" fill="none" stroke-width="0.5" />
    <path d="M154 8 C155 9 157 9 158 8" fill="none" stroke="white" stroke-width="0.5" />
</svg>